<svg xmlns="http://www.w3.org/2000/svg" xmlns:xlink="http://www.w3.org/1999/xlink" viewBox="0,0,256,256" width="48px" height="48px" fill-rule="nonzero"><defs><linearGradient x1="10.341" y1="8.312" x2="40.798" y2="38.769" gradientUnits="userSpaceOnUse" id="color-1"><stop offset="0" stop-color="#2aa4f4"></stop><stop offset="1" stop-color="#007ad9"></stop></linearGradient></defs><g fill-opacity="0" fill="#dddddd" fill-rule="nonzero" stroke="none" stroke-width="1" stroke-linecap="butt" stroke-linejoin="miter" stroke-miterlimit="10" stroke-dasharray="" stroke-dashoffset="0" font-family="none" font-weight="none" font-size="none" text-anchor="none" style="mix-blend-mode: normal"><path d="M0,256v-256h256v256z" id="bgRectangle"></path></g><g fill="none" fill-rule="nonzero" stroke="none" stroke-width="none" stroke-linecap="butt" stroke-linejoin="none" stroke-miterlimit="10" stroke-dasharray="" stroke-dashoffset="0" font-family="none" font-weight="none" font-size="none" text-anchor="none" style="mix-blend-mode: normal"><path transform="translate(-20.79467,-37.33333) scale(5.33333,5.33333)" d="M41.783,15.466c0.017,0.366 0.029,0.736 0.029,1.108c0,11.347 -8.714,24.426 -24.641,24.426c-4.888,0 -9.441,-1.423 -13.278,-3.852c0.678,0.082 1.364,0.122 2.065,0.122c4.059,0 7.792,-1.376 10.756,-3.674c-3.788,-0.074 -6.985,-2.561 -8.087,-5.963c0.528,0.095 1.073,0.158 1.632,0.158c0.788,0 1.553,-0.11 2.276,-0.308c-3.958,-0.789 -6.944,-4.256 -6.944,-8.419c0,-0.037 0,-0.075 0,-0.101c1.17,0.634 2.506,1.029 3.926,1.072c-2.326,-1.545 -3.851,-4.168 -3.851,-7.147c0,-1.568 0.422,-3.053 1.172,-4.322c4.27,5.192 10.653,8.613 17.849,8.974c-0.147,-0.634 -0.226,-1.287 -0.226,-1.958c0,-4.739 3.878,-8.582 8.661,-8.582c2.49,0 4.738,1.036 6.314,2.706c1.973,-0.38 3.828,-1.101 5.502,-2.082c-0.646,2.002 -2.023,3.696 -3.812,4.758c1.76,-0.217 3.428,-0.675 4.979,-1.362z" id="strokeMainSVG" fill="#fffdfd" stroke="#fffdfd" stroke-width="7" stroke-linejoin="round"></path><g transform="translate(-20.79467,-37.33333) scale(5.33333,5.33333)" fill="url(#color-1)" stroke="none" stroke-width="1" stroke-linejoin="miter"><path d="M46.105,11.02c-1.551,0.687 -3.219,1.145 -4.979,1.362c1.789,-1.062 3.166,-2.756 3.812,-4.758c-1.674,0.981 -3.529,1.702 -5.502,2.082c-1.576,-1.67 -3.824,-2.706 -6.314,-2.706c-4.783,0 -8.661,3.843 -8.661,8.582c0,0.671 0.079,1.324 0.226,1.958c-7.196,-0.361 -13.579,-3.782 -17.849,-8.974c-0.75,1.269 -1.172,2.754 -1.172,4.322c0,2.979 1.525,5.602 3.851,7.147c-1.42,-0.043 -2.756,-0.438 -3.926,-1.072c0,0.026 0,0.064 0,0.101c0,4.163 2.986,7.63 6.944,8.419c-0.723,0.198 -1.488,0.308 -2.276,0.308c-0.559,0 -1.104,-0.063 -1.632,-0.158c1.102,3.402 4.299,5.889 8.087,5.963c-2.964,2.298 -6.697,3.674 -10.756,3.674c-0.701,0 -1.387,-0.04 -2.065,-0.122c3.837,2.429 8.39,3.852 13.278,3.852c15.927,0 24.641,-13.079 24.641,-24.426c0,-0.372 -0.012,-0.742 -0.029,-1.108c1.7,-1.201 3.165,-2.715 4.322,-4.446"></path></g></g></svg>